# xmcd
#
# Track frame offsets:
#	150
#	23864
#	52879
#	72744
#	87436
#	96332
#	120797
#	153450
#	170654
#	196925
#	249737
#	261952
#
# Disc length: 3776 seconds
#
# Revision: 4
# Processed by: cddbd v1.5.2PL0 Copyright (c) Steve Scherf et al.
# Submitted via: audiograbber 1.83.01
#
DISCID=a40ebe0c
DTITLE=John Legend and The Roots - Wake Up!
DYEAR=2010
DGENRE=R&B
TTITLE0=Hard Times (ft. Black Thought)
TTITLE1=Compared To What
TTITLE2=Wake Up Everybody (ft. Common and Melanie Fiona)
TTITLE3=Our Generation (The Hope Of The World) (ft. Cl Smooth)
TTITLE4=Little Ghetto Boy (Prelude) (ft. Malik Yusef)
TTITLE5=Little Ghetto Boy (ft. Black Thought)
TTITLE6=Hang On In There
TTITLE7=Humanity (Love the Way It Should Be)
TTITLE8=Wholy Holy
TTITLE9=I Can't Write Left Handed
TTITLE10=I Wish I Knew How It Would Feel To Be Free
TTITLE11=Shine
EXTD=
EXTT0=
EXTT1=
EXTT2=
EXTT3=
EXTT4=
EXTT5=
EXTT6=
EXTT7=
EXTT8=
EXTT9=
EXTT10=
EXTT11=
PLAYORDER=
